<?xml version="1.0" encoding="UTF-8"?>
<svg xmlns="http://www.w3.org/2000/svg" xmlns:xlink="http://www.w3.org/1999/xlink" width="40pt" height="40pt" viewBox="0 0 40 40" version="1.1">
<g id="surface1">
<path style=" stroke:none;fill-rule:nonzero;fill:rgb(100%,100%,100%);fill-opacity:1;" d="M 19.851562 40 C 9.195312 39.925781 -0.0703125 31.082031 0 19.84375 C 0.0703125 9.03125 9.054688 -0.0742188 20.171875 0 C 30.980469 0.0703125 40.097656 9.042969 40 20.03125 C 40.089844 30.917969 30.925781 40.078125 19.851562 40 Z M 19.851562 40 C 9.195312 39.925781 -0.0703125 31.082031 0 19.84375 C 0.0703125 9.03125 9.054688 -0.0742188 20.171875 0 C 30.980469 0.0703125 40.097656 9.042969 40 20.03125 C 40.089844 30.917969 30.925781 40.078125 19.851562 40 Z M 19.851562 40 "/>
<path style=" stroke:none;fill-rule:nonzero;fill:rgb(28.627451%,63.921569%,16.862745%);fill-opacity:1;" d="M 19.871094 37.34375 C 10.628906 37.28125 2.59375 29.609375 2.65625 19.863281 C 2.714844 10.488281 10.507812 2.59375 20.152344 2.65625 C 29.519531 2.71875 37.425781 10.496094 37.34375 20.027344 C 37.421875 29.46875 29.476562 37.410156 19.871094 37.34375 Z M 19.871094 37.34375 C 10.628906 37.28125 2.59375 29.609375 2.65625 19.863281 C 2.714844 10.488281 10.507812 2.59375 20.152344 2.65625 C 29.519531 2.71875 37.425781 10.496094 37.34375 20.027344 C 37.421875 29.46875 29.476562 37.410156 19.871094 37.34375 Z M 19.871094 37.34375 "/>
<path style=" stroke:none;fill-rule:nonzero;fill:rgb(100%,100%,100%);fill-opacity:1;" d="M 26.457031 19.992188 C 26.414062 20.820312 25.691406 21.507812 24.980469 21.386719 C 24.976562 21.386719 24.972656 21.386719 24.96875 21.386719 C 24.179688 21.386719 23.539062 20.75 23.539062 19.960938 C 23.566406 19.171875 24.222656 18.546875 25.011719 18.5625 C 25.800781 18.566406 26.5 19.230469 26.457031 19.992188 Z M 13.78125 28.003906 C 14.078125 28.011719 14.375 28.003906 14.71875 28.003906 L 14.71875 30.160156 C 12.589844 30.519531 10.832031 29.914062 10.402344 28.113281 C 10.253906 27.453125 10.164062 26.777344 10.132812 26.101562 C 10.085938 25.382812 10.164062 24.65625 10.109375 23.941406 C 9.957031 21.972656 9.703125 21.296875 7.8125 21.203125 L 7.8125 18.753906 C 7.949219 18.71875 8.085938 18.695312 8.222656 18.683594 C 9.261719 18.628906 9.699219 18.3125 9.929688 17.292969 C 10.035156 16.71875 10.097656 16.136719 10.117188 15.554688 C 10.199219 14.425781 10.167969 13.28125 10.355469 12.171875 C 10.628906 10.566406 11.625 9.785156 13.269531 9.699219 C 13.738281 9.675781 14.207031 9.695312 14.738281 9.695312 L 14.738281 11.898438 C 14.519531 11.914062 14.320312 11.945312 14.121094 11.9375 C 12.78125 11.898438 12.710938 12.355469 12.613281 13.464844 C 12.550781 14.160156 12.636719 14.867188 12.589844 15.566406 C 12.539062 16.261719 12.445312 16.953125 12.308594 17.636719 C 12.117188 18.625 11.507812 19.363281 10.664062 19.988281 C 12.300781 21.054688 12.488281 22.710938 12.59375 24.390625 C 12.652344 25.296875 12.625 26.207031 12.71875 27.105469 C 12.789062 27.804688 13.0625 27.980469 13.78125 28.003906 Z M 15.160156 18.5625 C 15.171875 18.5625 15.179688 18.5625 15.1875 18.5625 C 15.96875 18.574219 16.59375 19.21875 16.582031 20.003906 C 16.582031 20.027344 16.582031 20.054688 16.578125 20.078125 C 16.535156 20.84375 15.878906 21.429688 15.113281 21.386719 C 15.082031 21.386719 15.050781 21.386719 15.023438 21.382812 C 14.242188 21.34375 13.640625 20.683594 13.679688 19.902344 C 13.71875 19.121094 14.382812 18.523438 15.160156 18.5625 Z M 20.042969 18.5625 C 20.898438 18.554688 21.46875 19.109375 21.472656 19.957031 C 21.476562 20.824219 20.9375 21.382812 20.085938 21.386719 C 19.222656 21.390625 18.652344 20.84375 18.648438 20 C 18.644531 19.957031 18.644531 19.914062 18.644531 19.871094 C 18.667969 19.125 19.292969 18.535156 20.042969 18.5625 Z M 30.261719 17.488281 C 30.488281 18.339844 30.933594 18.636719 31.828125 18.679688 C 31.976562 18.6875 32.121094 18.710938 32.324219 18.734375 L 32.324219 21.183594 C 32.214844 21.222656 32.101562 21.246094 31.988281 21.265625 C 30.789062 21.339844 30.242188 21.832031 30.121094 23.035156 C 30.042969 23.804688 30.050781 24.582031 29.996094 25.351562 C 29.972656 26.199219 29.894531 27.042969 29.765625 27.882812 C 29.457031 29.398438 28.511719 30.152344 26.949219 30.246094 C 26.445312 30.277344 25.9375 30.25 25.394531 30.25 L 25.394531 28.058594 C 25.6875 28.042969 25.945312 28.015625 26.203125 28.011719 C 27.136719 27.988281 27.46875 27.6875 27.515625 26.757812 C 27.566406 25.738281 27.585938 24.71875 27.632812 23.699219 C 27.699219 22.222656 28.101562 20.90625 29.476562 19.988281 C 28.691406 19.425781 28.058594 18.75 27.894531 17.835938 C 27.699219 16.726562 27.632812 15.59375 27.527344 14.46875 C 27.476562 13.90625 27.476562 13.339844 27.421875 12.777344 C 27.363281 12.171875 26.945312 11.960938 26.394531 11.945312 C 26.078125 11.9375 25.761719 11.945312 25.355469 11.945312 L 25.355469 9.804688 C 27.9375 9.378906 29.71875 10.234375 29.882812 12.703125 C 29.953125 13.738281 29.941406 14.78125 30.007812 15.816406 C 30.039062 16.382812 30.121094 16.941406 30.261719 17.488281 Z M 30.261719 17.488281 "/>
</g>
</svg>
